<?xml version="1.0" encoding="UTF-8" standalone="no"?>
<svg width="800" height="600" xmlns="http://www.w3.org/2000/svg">
  <!-- Conference Room Outline -->
  <rect x="100" y="100" width="600" height="400" fill="none" stroke="black" stroke-width="3"/>
  
  <!-- Tables on East Side (Right) -->
  <rect x="550" y="150" width="100" height="50" fill="#f0f0f0" stroke="black" stroke-width="2"/>
  <rect x="550" y="225" width="100" height="50" fill="#f0f0f0" stroke="black" stroke-width="2"/>
  <rect x="550" y="300" width="100" height="50" fill="#f0f0f0" stroke="black" stroke-width="2"/>
  <rect x="550" y="375" width="100" height="50" fill="#f0f0f0" stroke="black" stroke-width="2"/>
  <rect x="550" y="450" width="100" height="50" fill="#f0f0f0" stroke="black" stroke-width="2"/>
  
  <!-- Tables on West Side (Left) -->
  <rect x="150" y="150" width="100" height="50" fill="#f0f0f0" stroke="black" stroke-width="2"/>
  <rect x="150" y="225" width="100" height="50" fill="#f0f0f0" stroke="black" stroke-width="2"/>
  <rect x="150" y="300" width="100" height="50" fill="#f0f0f0" stroke="black" stroke-width="2"/>
  <rect x="150" y="375" width="100" height="50" fill="#f0f0f0" stroke="black" stroke-width="2"/>
  <rect x="150" y="450" width="100" height="50" fill="#f0f0f0" stroke="black" stroke-width="2"/>
  
  <!-- Labels for East Side Tables -->
  <text x="600" y="180" text-anchor="middle" font-family="Arial" font-size="12">6. LaunchDarkly</text>
  <text x="600" y="255" text-anchor="middle" font-family="Arial" font-size="12">7. Cloudsmith</text>
  <text x="600" y="330" text-anchor="middle" font-family="Arial" font-size="12">8. Amazon Web Services</text>
  <text x="600" y="405" text-anchor="middle" font-family="Arial" font-size="12">9. Databricks</text>
  <text x="600" y="480" text-anchor="middle" font-family="Arial" font-size="12">10. Hashicorp</text>
  
  <!-- Labels for West Side Tables -->
  <text x="200" y="180" text-anchor="middle" font-family="Arial" font-size="12">1. DataDog</text>
  <text x="200" y="255" text-anchor="middle" font-family="Arial" font-size="12">2. EP Observe</text>
  <text x="200" y="330" text-anchor="middle" font-family="Arial" font-size="12">3. Product Analytics</text>
  <text x="200" y="405" text-anchor="middle" font-family="Arial" font-size="12">4. MDS and Figma</text>
  <text x="200" y="480" text-anchor="middle" font-family="Arial" font-size="12">5. Thrivent Planning Platform</text>
  
  <!-- Room Labels -->
  <text x="400" y="80" text-anchor="middle" font-family="Arial" font-size="16" font-weight="bold">Conference Room - Table Layout</text>
  <text x="400" y="520" text-anchor="middle" font-family="Arial" font-size="14">North</text>
  <text x="400" y="130" text-anchor="middle" font-family="Arial" font-size="14">South</text>
  <text x="120" y="300" text-anchor="middle" font-family="Arial" font-size="14" transform="rotate(270,120,300)">West</text>
  <text x="680" y="300" text-anchor="middle" font-family="Arial" font-size="14" transform="rotate(90,680,300)">East</text>
  
  <!-- Door -->
  <line x1="350" y1="500" x2="450" y2="500" stroke="black" stroke-width="3"/>
  <path d="M 350,500 Q 400,450 450,500" fill="none" stroke="black" stroke-width="1"/>
  <text x="400" y="540" text-anchor="middle" font-family="Arial" font-size="12">Entrance</text>
</svg>